<svg width="40" height="40" fill="none" xmlns="http://www.w3.org/2000/svg"><path d="M23.026 4.827a1.92 1.92 0 0 1 2.739-.435c.876.66 1.063 1.917.422 2.819-.314.441-.773.71-1.256.797l1.656 5.768 5.133-3.609a2.774 2.774 0 0 1-.152-.218c-.574-.946-.29-2.19.63-2.782.918-.591 2.127-.298 2.701.647h-.005c.574.946.29 2.191-.63 2.783-.453.286-.973.36-1.456.255l-3.857 18.57h3.826V36H7.223v-6.578h3.827l-3.858-18.57a1.91 1.91 0 0 1-1.457-.255c-.918-.592-1.203-1.837-.629-2.783.575-.945 1.784-1.238 2.703-.647.919.591 1.203 1.836.628 2.782-.042.081-.097.15-.15.218l5.15 3.386 1.64-5.545a1.952 1.952 0 0 1-1.259-.797 2.058 2.058 0 0 1 .423-2.82 1.92 1.92 0 0 1 2.74.436c.64.896.446 2.16-.424 2.82-.067.055-.145.1-.217.143l3.663 4.617 3.664-4.617a2.187 2.187 0 0 1-.218-.144c-.876-.66-1.063-1.917-.423-2.819Z" fill="#607623"/></svg>